<svg xmlns="http://www.w3.org/2000/svg" xmlns:xlink="http://www.w3.org/1999/xlink" viewBox="0,0,256,256" width="250px" height="250px"><g fill="#ffffff" fill-rule="nonzero" stroke="none" stroke-width="1" stroke-linecap="butt" stroke-linejoin="miter" stroke-miterlimit="10" stroke-dasharray="" stroke-dashoffset="0" font-family="none" font-weight="none" font-size="none" text-anchor="none" style="mix-blend-mode: normal"><g transform="scale(5.12,5.12)"><path d="M35,41h-6v-19.80078c0,-3.47656 2.72266,-6.19922 6.19922,-6.19922h6.60156c3.47656,0 6.19922,2.72266 6.19922,6.19922v6.60156c0,3.47656 -2.72266,6.19531 -6.19922,6.19531c0,0 -6.73437,0.00391 -6.80078,0zM31,39h2v-7c0,0 1.92188,0 2.19922,0h6.60156c2.35547,0 4.19922,-1.84375 4.19922,-4.19922v-6.60156c0,-2.35547 -1.84375,-4.19922 -4.19922,-4.19922h-6.60156c-2.35547,0 -4.19922,1.84375 -4.19922,4.19922zM28,34h-6v-12.80078c0,-0.14844 -0.05078,-0.19922 -0.19922,-0.19922h-3.78906c0.01172,0.01563 -0.01172,0.09375 -0.01172,0.19922v12.80078h-6v-12.80078c0,-0.14844 -0.05078,-0.19922 -0.19922,-0.19922h-3.78906c0.01172,0.01563 -0.01172,0.09375 -0.01172,0.19922v12.80078h-6v-12.80078c0,-3.47656 2.63672,-6.19922 6,-6.19922l3.89844,0.00781c1.13672,0 2.21094,0.42969 3.10547,0.98438c0.89063,-0.55469 1.86328,-0.99219 2.99609,-0.99219h3.80078c3.47656,0 6.19922,2.72266 6.19922,6.19922zM24,32h2v-10.80078c0,-2.35547 -1.84375,-4.19922 -4.19922,-4.19922h-3.80078c-0.94531,0 -1.8125,0.30469 -2.44141,0.85156l-0.57031,0.5625l-0.64453,-0.55469c-0.62891,-0.55078 -1.49609,-0.85156 -2.44141,-0.85156l-3.90234,-0.00781c-2.24219,0 -4,1.84375 -4,4.19922v10.80078h2v-10.80078c0,-1.27344 0.83984,-2.19922 2,-2.19922h3.80078c1.25391,0 2.19922,0.94531 2.19922,2.19922v10.80078h2v-10.80078c0,-1.27344 0.83984,-2.19922 2,-2.19922h3.80078c1.25391,0 2.19922,0.94531 2.19922,2.19922zM41.80078,30h-6.60156c-1.25391,0 -2.19922,-0.94531 -2.19922,-2.19922v-6.60156c0,-1.25391 0.94531,-2.19922 2.19922,-2.19922h6.60156c1.25391,0 2.19922,0.94531 2.19922,2.19922v6.60156c0,1.25391 -0.94531,2.19922 -2.19922,2.19922zM35.19922,21c-0.14844,0 -0.19922,0.05078 -0.19922,0.19922v6.60156c0,0.14844 0.05078,0.19922 0.19922,0.19922h6.60156c0.14844,0 0.19922,-0.05078 0.19922,-0.19922v-6.60156c0,-0.14844 -0.05078,-0.19922 -0.19922,-0.19922z"></path></g></g></svg>